<svg viewBox="0 0 28 29" fill="none" xmlns="http://www.w3.org/2000/svg"><path d="M14.0563 0C6.37387 0 0.112563 6.29293 0.112563 14.0141C0.112563 16.4889 0.759799 18.8929 1.96985 21.0141L0 28.2828L7.38693 26.3313C9.42713 27.4485 11.7206 28.0424 14.0563 28.0424C21.7387 28.0424 28 21.7495 28 14.0283C28 10.2808 26.5507 6.7596 23.9196 4.11515C21.2884 1.45657 17.7849 0 14.0563 0ZM14.0703 2.36162C17.1658 2.36162 20.0643 3.57778 22.2593 5.78384C24.4402 7.9899 25.6503 10.9172 25.6503 14.0283C25.6503 20.4485 20.4442 25.6667 14.0563 25.6667C11.9739 25.6667 9.93367 25.1152 8.1608 24.0404L7.73869 23.8L3.34874 24.9596L4.51658 20.6606L4.23518 20.2081C3.08141 18.3838 2.46231 16.2202 2.46231 14.0141C2.47638 7.59394 7.66834 2.36162 14.0703 2.36162ZM9.11759 7.53737C8.89246 7.53737 8.51256 7.62222 8.18894 7.97576C7.8794 8.32929 6.96482 9.19192 6.96482 10.903C6.96482 12.6283 8.21708 14.2828 8.37186 14.5232C8.56884 14.7636 10.8482 18.299 14.3518 19.798C15.1819 20.1798 15.8291 20.3919 16.3357 20.5475C17.1658 20.8162 17.9256 20.7737 18.5307 20.6889C19.206 20.5899 20.5849 19.8404 20.8804 19.0202C21.1759 18.2 21.1759 17.5071 21.0915 17.3515C20.993 17.2101 20.7678 17.1253 20.4161 16.9697C20.0643 16.7717 18.3477 15.9232 18.0382 15.8101C17.7146 15.697 17.5176 15.6404 17.2502 15.9798C17.0251 16.3333 16.3497 17.1253 16.1528 17.3515C15.9417 17.5919 15.7447 17.6202 15.407 17.4505C15.0412 17.2667 13.9156 16.899 12.593 15.7111C11.5518 14.7778 10.8623 13.6323 10.6513 13.2788C10.4824 12.9394 10.6372 12.7273 10.806 12.5717C10.9608 12.4162 11.1859 12.1616 11.3266 11.9495C11.5095 11.7515 11.5658 11.596 11.6784 11.3697C11.791 11.1293 11.7347 10.9313 11.6502 10.7616C11.5658 10.6061 10.8623 8.85252 10.5668 8.1596C10.2854 7.48081 10.004 7.56566 9.77889 7.55152C9.58191 7.55152 9.35678 7.53737 9.11759 7.53737Z" fill="white"></path></svg>
